<svg width="97" height="97" viewBox="0 0 97 97" fill="none" xmlns="http://www.w3.org/2000/svg">
<path d="M92.4531 36.375H77.2969V4.54688C77.2969 3.70978 76.6182 3.03125 75.7812 3.03125H21.2188C20.3818 3.03125 19.7031 3.70978 19.7031 4.54688V36.375H7.57812C5.07102 36.375 3.03125 38.4148 3.03125 40.9219V89.4219C3.03125 91.9291 5.07102 93.9688 7.57812 93.9688H92.4531C93.2901 93.9688 93.9688 93.2902 93.9688 92.4531V37.8906C93.9688 37.0535 93.2901 36.375 92.4531 36.375ZM22.7344 6.0625H74.2656V72.75H22.7344V6.0625ZM19.7031 39.4062V74.2656C19.7031 75.1027 20.3818 75.7812 21.2188 75.7812H75.7812C76.6182 75.7812 77.2969 75.1027 77.2969 74.2656V39.4062H90.9375V84.875H12.125V81.8438H13.6406V78.8125H12.125V72.75H13.6406V69.7188H12.125V63.6562H13.6406V60.625H12.125V54.5625H13.6406V51.5312H12.125V45.4688H13.6406V42.4375H12.125V39.4062H19.7031ZM7.57812 39.4062H9.09375V84.875H7.57812C7.04681 84.875 6.53687 84.9675 6.0625 85.1357V40.9219C6.0625 40.0862 6.74242 39.4062 7.57812 39.4062ZM9.09375 90.9375H7.57812C6.74242 90.9375 6.0625 90.2576 6.0625 89.4219C6.0625 88.5862 6.74242 87.9062 7.57812 87.9062H9.09375V90.9375ZM12.125 90.9375V87.9062H90.9375V90.9375H12.125Z" fill="#FF8A00"/>
<path d="M69.7188 9.09375H27.2812C26.4443 9.09375 25.7656 9.77228 25.7656 10.6094V19.7031C25.7656 20.5402 26.4443 21.2188 27.2812 21.2188H69.7188C70.5557 21.2188 71.2344 20.5402 71.2344 19.7031V10.6094C71.2344 9.77228 70.5557 9.09375 69.7188 9.09375ZM68.2031 18.1875H28.7969V12.125H68.2031V18.1875Z" fill="#FF8A00"/>
<path d="M69.7188 48.5H63.6562C62.8193 48.5 62.1406 49.1785 62.1406 50.0156V68.2031C62.1406 69.0402 62.8193 69.7188 63.6562 69.7188H69.7188C70.5557 69.7188 71.2344 69.0402 71.2344 68.2031V50.0156C71.2344 49.1785 70.5557 48.5 69.7188 48.5ZM68.2031 66.6875H65.1719V51.5312H68.2031V66.6875Z" fill="#FF8A00"/>
<path d="M57.5938 60.625H51.5312C50.6943 60.625 50.0156 61.3035 50.0156 62.1406V68.2031C50.0156 69.0402 50.6943 69.7188 51.5312 69.7188H57.5938C58.4307 69.7188 59.1094 69.0402 59.1094 68.2031V62.1406C59.1094 61.3035 58.4307 60.625 57.5938 60.625ZM56.0781 66.6875H53.0469V63.6562H56.0781V66.6875Z" fill="#FF8A00"/>
<path d="M45.4688 60.625H39.4062C38.5693 60.625 37.8906 61.3035 37.8906 62.1406V68.2031C37.8906 69.0402 38.5693 69.7188 39.4062 69.7188H45.4688C46.3057 69.7188 46.9844 69.0402 46.9844 68.2031V62.1406C46.9844 61.3035 46.3057 60.625 45.4688 60.625ZM43.9531 66.6875H40.9219V63.6562H43.9531V66.6875Z" fill="#FF8A00"/>
<path d="M33.3438 60.625H27.2812C26.4443 60.625 25.7656 61.3035 25.7656 62.1406V68.2031C25.7656 69.0402 26.4443 69.7188 27.2812 69.7188H33.3438C34.1807 69.7188 34.8594 69.0402 34.8594 68.2031V62.1406C34.8594 61.3035 34.1807 60.625 33.3438 60.625ZM31.8281 66.6875H28.7969V63.6562H31.8281V66.6875Z" fill="#FF8A00"/>
<path d="M57.5938 48.5H51.5312C50.6943 48.5 50.0156 49.1785 50.0156 50.0156V56.0781C50.0156 56.9152 50.6943 57.5938 51.5312 57.5938H57.5938C58.4307 57.5938 59.1094 56.9152 59.1094 56.0781V50.0156C59.1094 49.1785 58.4307 48.5 57.5938 48.5ZM56.0781 54.5625H53.0469V51.5312H56.0781V54.5625Z" fill="#FF8A00"/>
<path d="M45.4688 48.5H39.4062C38.5693 48.5 37.8906 49.1785 37.8906 50.0156V56.0781C37.8906 56.9152 38.5693 57.5938 39.4062 57.5938H45.4688C46.3057 57.5938 46.9844 56.9152 46.9844 56.0781V50.0156C46.9844 49.1785 46.3057 48.5 45.4688 48.5ZM43.9531 54.5625H40.9219V51.5312H43.9531V54.5625Z" fill="#FF8A00"/>
<path d="M33.3438 48.5H27.2812C26.4443 48.5 25.7656 49.1785 25.7656 50.0156V56.0781C25.7656 56.9152 26.4443 57.5938 27.2812 57.5938H33.3438C34.1807 57.5938 34.8594 56.9152 34.8594 56.0781V50.0156C34.8594 49.1785 34.1807 48.5 33.3438 48.5ZM31.8281 54.5625H28.7969V51.5312H31.8281V54.5625Z" fill="#FF8A00"/>
<path d="M57.5938 36.375H51.5312C50.6943 36.375 50.0156 37.0535 50.0156 37.8906V43.9531C50.0156 44.7902 50.6943 45.4688 51.5312 45.4688H57.5938C58.4307 45.4688 59.1094 44.7902 59.1094 43.9531V37.8906C59.1094 37.0535 58.4307 36.375 57.5938 36.375ZM56.0781 42.4375H53.0469V39.4062H56.0781V42.4375Z" fill="#FF8A00"/>
<path d="M45.4688 36.375H39.4062C38.5693 36.375 37.8906 37.0535 37.8906 37.8906V43.9531C37.8906 44.7902 38.5693 45.4688 39.4062 45.4688H45.4688C46.3057 45.4688 46.9844 44.7902 46.9844 43.9531V37.8906C46.9844 37.0535 46.3057 36.375 45.4688 36.375ZM43.9531 42.4375H40.9219V39.4062H43.9531V42.4375Z" fill="#FF8A00"/>
<path d="M33.3438 36.375H27.2812C26.4443 36.375 25.7656 37.0535 25.7656 37.8906V43.9531C25.7656 44.7902 26.4443 45.4688 27.2812 45.4688H33.3438C34.1807 45.4688 34.8594 44.7902 34.8594 43.9531V37.8906C34.8594 37.0535 34.1807 36.375 33.3438 36.375ZM31.8281 42.4375H28.7969V39.4062H31.8281V42.4375Z" fill="#FF8A00"/>
<path d="M57.5938 24.25H51.5312C50.6943 24.25 50.0156 24.9285 50.0156 25.7656V31.8281C50.0156 32.6652 50.6943 33.3438 51.5312 33.3438H57.5938C58.4307 33.3438 59.1094 32.6652 59.1094 31.8281V25.7656C59.1094 24.9285 58.4307 24.25 57.5938 24.25ZM56.0781 30.3125H53.0469V27.2812H56.0781V30.3125Z" fill="#FF8A00"/>
<path d="M69.7188 36.375H63.6562C62.8193 36.375 62.1406 37.0535 62.1406 37.8906V43.9531C62.1406 44.7902 62.8193 45.4688 63.6562 45.4688H69.7188C70.5557 45.4688 71.2344 44.7902 71.2344 43.9531V37.8906C71.2344 37.0535 70.5557 36.375 69.7188 36.375ZM68.2031 42.4375H65.1719V39.4062H68.2031V42.4375Z" fill="#FF8A00"/>
<path d="M69.7188 24.25H63.6562C62.8193 24.25 62.1406 24.9285 62.1406 25.7656V31.8281C62.1406 32.6652 62.8193 33.3438 63.6562 33.3438H69.7188C70.5557 33.3438 71.2344 32.6652 71.2344 31.8281V25.7656C71.2344 24.9285 70.5557 24.25 69.7188 24.25ZM68.2031 30.3125H65.1719V27.2812H68.2031V30.3125Z" fill="#FF8A00"/>
<path d="M45.4688 24.25H39.4062C38.5693 24.25 37.8906 24.9285 37.8906 25.7656V31.8281C37.8906 32.6652 38.5693 33.3438 39.4062 33.3438H45.4688C46.3057 33.3438 46.9844 32.6652 46.9844 31.8281V25.7656C46.9844 24.9285 46.3057 24.25 45.4688 24.25ZM43.9531 30.3125H40.9219V27.2812H43.9531V30.3125Z" fill="#FF8A00"/>
<path d="M33.3438 24.25H27.2812C26.4443 24.25 25.7656 24.9285 25.7656 25.7656V31.8281C25.7656 32.6652 26.4443 33.3438 27.2812 33.3438H33.3438C34.1807 33.3438 34.8594 32.6652 34.8594 31.8281V25.7656C34.8594 24.9285 34.1807 24.25 33.3438 24.25ZM31.8281 30.3125H28.7969V27.2812H31.8281V30.3125Z" fill="#FF8A00"/>
</svg>
