<svg width="89" height="89" viewBox="0 0 89 89" fill="none" xmlns="http://www.w3.org/2000/svg">
<path d="M67.75 65.6945V63.3898C67.7462 59.9225 66.3671 56.5982 63.9153 54.1464C61.4635 51.6946 58.1392 50.3155 54.6719 50.3117H54.5266C57.2368 48.616 59.4719 46.2598 61.0223 43.4639C62.5727 40.6681 63.3876 37.5243 63.3906 34.3273V27.0617H64.8438C65.2291 27.0617 65.5988 26.9086 65.8713 26.6361C66.1438 26.3636 66.2969 25.994 66.2969 25.6086V22.7023C66.2676 17.1108 64.0906 11.7443 60.2159 7.71269C56.3413 3.68109 51.0655 1.29274 45.4795 1.04155C39.8935 0.790353 34.4246 2.69553 30.2037 6.36308C25.9829 10.0306 23.333 15.18 22.8019 20.7464L3.38673 1.33122C3.18351 1.12806 2.92462 0.98971 2.64278 0.933667C2.36094 0.877623 2.06882 0.9064 1.80333 1.01636C1.53784 1.12632 1.31092 1.31252 1.15124 1.55143C0.991569 1.79033 0.906311 2.07122 0.90625 2.35858V86.6398C0.90625 87.0252 1.05935 87.3948 1.33186 87.6673C1.60437 87.9398 1.97398 88.0929 2.35938 88.0929H86.6406C86.928 88.0929 87.2089 88.0076 87.4478 87.8479C87.6867 87.6883 87.8729 87.4613 87.9828 87.1959C88.0928 86.9304 88.1216 86.6383 88.0655 86.3564C88.0095 86.0746 87.8711 85.8157 87.668 85.6125L67.75 65.6945ZM60.4844 34.3273C60.4844 38.5666 58.8003 42.6323 55.8027 45.63C52.805 48.6276 48.7393 50.3117 44.5 50.3117C40.2607 50.3117 36.195 48.6276 33.1973 45.63C30.1997 42.6323 28.5156 38.5666 28.5156 34.3273V26.6563L43.5802 21.6357C44.177 21.4381 44.8216 21.4381 45.4184 21.6357L60.4844 26.6563V34.3273ZM21.25 63.3898V73.5617H15.4375V32.0227L33.7556 50.3408C30.3923 50.4881 27.2153 51.9268 24.886 54.3574C22.5566 56.788 21.2543 60.0233 21.25 63.3898ZM25.6094 22.7023C25.6094 17.6922 27.5996 12.8873 31.1423 9.34464C34.685 5.80196 39.4899 3.8117 44.5 3.8117C49.5101 3.8117 54.315 5.80196 57.8577 9.34464C61.4004 12.8873 63.3906 17.6922 63.3906 22.7023V24.1555H62.1715L46.3324 18.8762C45.1388 18.481 43.8496 18.481 42.656 18.8762L26.8285 24.1555H25.6094V22.7023ZM3.8125 79.3742H8.17188V76.4679H3.8125V70.6554H8.17188V67.7492H3.8125V61.9367H8.17188V59.0304H3.8125V53.2179H8.17188V50.3117H3.8125V44.4992H8.17188V41.5929H3.8125V35.7804H8.17188V32.8742H3.8125V27.0617H8.17188V24.1555H3.8125V18.343H8.17188V15.4367H3.8125V5.86642L22.7031 24.757V25.6086C22.7031 25.994 22.8562 26.3636 23.1287 26.6361C23.4012 26.9086 23.7709 27.0617 24.1562 27.0617H25.6094V34.3273C25.614 35.762 25.7827 37.1915 26.1122 38.5879L15.0117 27.4875C14.8085 27.2843 14.5496 27.146 14.2678 27.0899C13.9859 27.0339 13.6938 27.0626 13.4283 27.1726C13.1628 27.2826 12.9359 27.4688 12.7762 27.7077C12.6166 27.9466 12.5313 28.2275 12.5312 28.5148V75.0148C12.5312 75.4002 12.6843 75.7698 12.9569 76.0423C13.2294 76.3148 13.599 76.4679 13.9844 76.4679H21.25V85.1867H12.5312V80.8273H9.625V85.1867H3.8125V79.3742ZM24.1562 85.1867V63.3898C24.1593 60.693 25.232 58.1075 27.1389 56.2006C29.0459 54.2937 31.6313 53.221 34.3281 53.2179H54.6719C57.3687 53.221 59.9542 54.2937 61.8611 56.2006C63.768 58.1075 64.8407 60.693 64.8438 63.3898V85.1867H24.1562ZM67.75 85.1867V69.8039L83.1328 85.1867H67.75Z" fill="#FF8A00"/>
<path d="M87.9906 16.3516L82.1781 1.82038C82.0705 1.55026 81.8843 1.31863 81.6437 1.15544C81.403 0.992261 81.1189 0.905029 80.8281 0.905029C80.5374 0.905029 80.2533 0.992261 80.0126 1.15544C79.772 1.31863 79.5858 1.55026 79.4782 1.82038L73.6657 16.3516C73.5973 16.5231 73.5623 16.7061 73.5625 16.8907V60.4845C73.5625 62.4114 74.328 64.2595 75.6906 65.6221C77.0531 66.9846 78.9012 67.7501 80.8281 67.7501C82.7551 67.7501 84.6032 66.9846 85.9657 65.6221C87.3283 64.2595 88.0938 62.4114 88.0938 60.4845V16.8907C88.0939 16.7061 88.0589 16.5231 87.9906 16.3516ZM80.8281 6.2713L84.4944 15.4376H77.1619L80.8281 6.2713ZM79.375 18.3439V50.3126H76.4688V18.3439H79.375ZM85.1875 53.2189V56.1251H76.4688V53.2189H85.1875ZM82.2813 50.3126V18.3439H85.1875V50.3126H82.2813ZM80.8281 64.8439C79.672 64.8439 78.5631 64.3846 77.7456 63.567C76.928 62.7495 76.4688 61.6407 76.4688 60.4845V59.0314H85.1875V60.4845C85.1875 61.6407 84.7282 62.7495 83.9107 63.567C83.0931 64.3846 81.9843 64.8439 80.8281 64.8439Z" fill="#FF8A00"/>
<path d="M38.6875 38.6875H35.7812C35.7812 40.9999 36.6998 43.2175 38.3349 44.8526C39.97 46.4877 42.1876 47.4062 44.5 47.4062C46.8124 47.4062 49.03 46.4877 50.6651 44.8526C52.3002 43.2175 53.2188 40.9999 53.2188 38.6875H50.3125C50.3125 40.2291 49.7001 41.7075 48.6101 42.7976C47.52 43.8876 46.0416 44.5 44.5 44.5C42.9584 44.5 41.48 43.8876 40.3899 42.7976C39.2999 41.7075 38.6875 40.2291 38.6875 38.6875Z" fill="#FF8A00"/>
<path d="M44.5 59.0312C42.4882 59.0313 40.5216 59.6278 38.8488 60.7455C37.1761 61.8632 35.8723 63.4518 35.1024 65.3105C34.3325 67.1692 34.1311 69.2144 34.5236 71.1876C34.9161 73.1607 35.8848 74.9732 37.3074 76.3957C38.73 77.8183 40.5424 78.7871 42.5156 79.1795C44.4887 79.572 46.5339 79.3706 48.3926 78.6007C50.2513 77.8308 51.8399 76.5271 52.9576 74.8543C54.0753 73.1816 54.6719 71.2149 54.6719 69.2031C54.6688 66.5063 53.5961 63.9208 51.6892 62.0139C49.7823 60.107 47.1968 59.0343 44.5 59.0312ZM44.5 76.4687C43.063 76.4687 41.6583 76.0426 40.4634 75.2443C39.2686 74.4459 38.3374 73.3112 37.7874 71.9836C37.2375 70.6559 37.0936 69.1951 37.374 67.7857C37.6543 66.3763 38.3463 65.0817 39.3624 64.0656C40.3785 63.0494 41.6732 62.3575 43.0825 62.0771C44.4919 61.7968 45.9528 61.9406 47.2804 62.4906C48.6081 63.0405 49.7428 63.9717 50.5411 65.1666C51.3395 66.3614 51.7656 67.7661 51.7656 69.2031C51.7633 71.1294 50.9971 72.9761 49.635 74.3381C48.273 75.7002 46.4263 76.4664 44.5 76.4687Z" fill="#FF8A00"/>
</svg>
