<svg width="109" height="81" viewBox="0 0 109 81" fill="none" xmlns="http://www.w3.org/2000/svg">
<g clip-path="url(#clip0)">
<path d="M97.2085 42.9111L94.5017 32.0839C95.2418 31.9267 95.797 31.2701 95.797 30.4835V28.7378C95.797 24.9476 92.7133 21.8641 88.9233 21.8641H76.5941V18.2632C76.5941 16.3981 75.0769 14.8809 73.2117 14.8809H10.3652C8.50007 14.8809 6.98281 16.3981 6.98281 18.2632V47.9407C6.98281 48.8445 7.71551 49.5774 8.6195 49.5774C9.52328 49.5774 10.2562 48.8447 10.2562 47.9407V18.2632C10.2562 18.203 10.305 18.1542 10.3652 18.1542H73.2115C73.2717 18.1542 73.3205 18.203 73.3205 18.2632V47.9412C73.3205 48.8449 74.0532 49.5778 74.9572 49.5778C75.861 49.5778 76.5939 48.8451 76.5939 47.9412V46.0858H95.9003C95.902 46.0858 95.9032 46.0862 95.9046 46.0862C95.9063 46.0862 95.9077 46.086 95.9091 46.086C98.2848 46.0877 100.302 47.647 100.995 49.7957H95.9059C95.0021 49.7957 94.2692 50.5284 94.2692 51.4323V54.9237C94.2692 57.7514 96.5696 60.0518 99.3973 60.0518H101.252V67.2528H96.9728C95.567 63.1937 91.7083 60.2699 87.1771 60.2699C82.646 60.2699 78.7871 63.1937 77.3815 67.2528H76.5935V54.9235C76.5935 54.0198 75.8608 53.2869 74.9568 53.2869C74.053 53.2869 73.3201 54.0196 73.3201 54.9235V67.2524H39.364C37.9582 63.1933 34.0995 60.2694 29.5683 60.2694C25.0372 60.2694 21.1783 63.1933 19.7727 67.2524H10.3652C10.305 67.2524 10.2562 67.2037 10.2562 67.1434V63.5428H17.3482C18.252 63.5428 18.9849 62.8101 18.9849 61.9061C18.9849 61.0021 18.2522 60.2694 17.3482 60.2694H1.63669C0.732905 60.2694 0 61.0021 0 61.9061C0 62.8101 0.732701 63.5428 1.63669 63.5428H6.98302V67.1434C6.98302 69.0086 8.50027 70.5258 10.3654 70.5258H19.206C19.2056 70.5621 19.2031 70.5983 19.2031 70.6348C19.2031 76.3503 23.8531 81 29.5683 81C35.2836 81 39.9335 76.3503 39.9335 70.6348C39.9335 70.5981 39.9311 70.5621 39.9307 70.5258H76.8148C76.8144 70.5621 76.8119 70.5983 76.8119 70.6348C76.8119 76.3503 81.4619 81 87.1771 81C92.8924 81 97.5423 76.3503 97.5423 70.6348C97.5423 70.5981 97.5399 70.5621 97.5395 70.5258H102.889C103.793 70.5258 104.526 69.7931 104.526 68.8891V51.4319C104.526 47.1219 101.346 43.5409 97.2085 42.9111ZM76.5941 25.1372H88.9233C90.9086 25.1372 92.5239 26.7525 92.5239 28.7378V28.8469H76.5941V25.1372ZM76.5941 42.8127V32.12H91.1369L93.81 42.8127H76.5941ZM29.5683 77.7272C25.6578 77.7272 22.4763 74.546 22.4763 70.6352C22.4763 66.7245 25.6578 63.5432 29.5683 63.5432C33.4789 63.5432 36.6604 66.7245 36.6604 70.6352C36.6604 74.546 33.4789 77.7272 29.5683 77.7272ZM87.1776 77.7272C83.267 77.7272 80.0855 74.546 80.0855 70.6352C80.0855 66.7245 83.267 63.5432 87.1776 63.5432C91.0881 63.5432 94.2696 66.7245 94.2696 70.6352C94.2696 74.546 91.0881 77.7272 87.1776 77.7272ZM101.253 56.7785H99.3977C98.3749 56.7785 97.5428 55.9463 97.5428 54.9235V53.0686H101.252V56.7785H101.253Z" fill="#FF8A00"/>
<path d="M39.7894 67.2529C37.2795 67.2529 35.2378 68.7702 35.2378 70.6353C35.2378 72.5004 37.2795 74.0177 39.7894 74.0177C42.2993 74.0177 44.341 72.5004 44.341 70.6353C44.341 68.7702 42.2993 67.2529 39.7894 67.2529Z" fill="#FF8A00"/>
<path d="M91.4715 60.27H58.5829C57.3667 60.27 56.3804 61.0027 56.3804 61.9067C56.3804 62.8107 57.3664 63.5434 58.5829 63.5434H91.4715C92.6877 63.5434 93.674 62.8107 93.674 61.9067C93.674 61.0027 92.688 60.27 91.4715 60.27Z" fill="#FF8A00"/>
<path d="M35.0911 53.2871H6.90075C5.68456 53.2871 4.6983 54.0198 4.6983 54.9238C4.6983 55.8278 5.68428 56.5605 6.90075 56.5605H35.0911C36.3073 56.5605 37.2936 55.8278 37.2936 54.9238C37.2936 54.0198 36.3073 53.2871 35.0911 53.2871Z" fill="#FF8A00"/>
<path d="M76.5847 31.0717C75.7248 30.4328 74.33 30.4328 73.4701 31.072L53.8846 45.6261L43.696 38.0548C42.8358 37.4156 41.4413 37.4156 40.5815 38.0548C39.7213 38.694 39.7213 39.73 40.5815 40.3692L52.3275 49.0979C52.7574 49.4176 53.3212 49.5773 53.8846 49.5773C54.4481 49.5773 55.0121 49.4176 55.4417 49.0979L76.5844 33.3864C77.4445 32.747 77.4445 31.7109 76.5847 31.0717Z" fill="#FF8A00"/>
</g>
<defs>
<clipPath id="clip0">
<rect width="109" height="81" fill="white"/>
</clipPath>
</defs>
</svg>
