<svg width="56" height="56" viewBox="0 0 56 56" fill="none" xmlns="http://www.w3.org/2000/svg">
<path d="M28 0C16.6598 0 7.46667 9.1931 7.46667 20.5333C7.46667 31.5672 26.4712 54.6831 27.2804 55.6612C27.4577 55.8758 27.7216 56 28 56C28.2784 56 28.5423 55.8758 28.7196 55.6612C29.5288 54.6831 48.5333 31.5672 48.5333 20.5333C48.5333 9.1931 39.3402 0 28 0ZM28 53.5836C24.4879 49.1997 9.33334 29.7472 9.33334 20.5333C9.34512 10.2289 17.6957 1.87845 28 1.86667C38.3045 1.87845 46.6549 10.2289 46.6667 20.5333C46.6667 29.7453 31.5121 49.1988 28 53.5836Z" fill="#FF8A00"/>
<path d="M40.7027 16.9941L28.5693 7.66077C28.2337 7.40247 27.7663 7.40247 27.4307 7.66077L15.2973 16.9941C14.8891 17.3088 14.8133 17.8949 15.1279 18.3031C15.3046 18.5322 15.5773 18.6665 15.8667 18.6666H18.6667V28.9333C18.6667 29.4487 19.0846 29.8666 19.6 29.8666H36.4C36.9154 29.8666 37.3333 29.4487 37.3333 28.9333V18.6666H40.1333C40.6488 18.6664 41.0664 18.2483 41.0662 17.7328C41.0661 17.4435 40.9318 17.1707 40.7027 16.9941ZM29.8667 28H26.1333V22.4H29.8667V28ZM36.4 16.8C35.8846 16.8 35.4667 17.2179 35.4667 17.7333V28H31.7333V21.4666C31.7333 20.9512 31.3154 20.5333 30.8 20.5333H25.2C24.6846 20.5333 24.2667 20.9512 24.2667 21.4666V28H20.5333V17.7333C20.5333 17.2179 20.1154 16.8 19.6 16.8H18.6107L28 9.57783L37.3893 16.8H36.4Z" fill="#FF8A00"/>
</svg>
