<svg width="26" height="26" viewBox="0 0 26 26" fill="none" xmlns="http://www.w3.org/2000/svg">
<path d="M3.56793 21.9811H22.4085C23.936 21.9795 25.1741 20.7416 25.1757 19.2139V6.42935C25.1741 4.90186 23.936 3.6638 22.4085 3.66214H3.56793C2.04045 3.6638 0.802376 4.90186 0.80072 6.42935V19.2139C0.802376 20.7416 2.04045 21.9795 3.56793 21.9811ZM3.56793 21.1568C3.14273 21.1574 2.72912 21.0176 2.3915 20.7589L8.02601 14.9957C8.13052 14.8907 8.17044 14.7376 8.13088 14.595C8.09133 14.4522 7.97836 14.3418 7.83484 14.3056C7.69115 14.2692 7.53917 14.3126 7.4365 14.4197L1.85462 20.1291C1.70374 19.8477 1.62481 19.5333 1.625 19.2139V7.33789L11.2033 15.4484C12.2346 16.3262 13.7507 16.3258 14.7812 15.4467L24.3514 7.32998V19.2139C24.3518 19.5346 24.2723 19.85 24.1204 20.132L18.505 14.4186C18.3451 14.2578 18.0855 14.2561 17.9236 14.4149C17.7618 14.5742 17.7589 14.8338 17.9171 14.9963L23.5826 20.7607C23.2453 21.0181 22.8328 21.1574 22.4085 21.1568H3.56793ZM3.56793 4.48642H22.4085C23.4138 4.48789 24.2525 5.25476 24.3433 6.25622L14.2482 14.8182C13.5246 15.4353 12.46 15.4357 11.736 14.8191L1.63272 6.26413C1.7192 5.25954 2.55948 4.48789 3.56793 4.48642Z" fill="#FF8A00"/>
</svg>
