<svg width="25" height="25" viewBox="0 0 25 25" fill="none" xmlns="http://www.w3.org/2000/svg">
<g clip-path="url(#clip0)">
<path d="M24.9795 11.7687C24.8071 8.74345 23.5206 5.87803 21.3571 3.7003C19.1935 1.52228 16.3366 0.217399 13.3129 0.0260905C11.4746 -0.0902667 9.68357 0.183414 7.98933 0.839321C6.36072 1.46974 4.90575 2.41837 3.66459 3.6588C2.42338 4.89927 1.47397 6.35371 0.842473 7.98198C0.185541 9.67583 -0.0891171 11.4667 0.0260683 13.3048C0.21513 16.3216 1.51342 19.1746 3.68163 21.3379C5.84964 23.501 8.70554 24.7932 11.7231 24.9763C11.9841 24.9921 12.2441 25 12.5035 25C13.8193 25 15.1123 24.7965 16.3568 24.3927C17.3687 24.0644 18.1776 23.3016 18.5764 22.2999C18.9643 21.3257 18.9256 20.2465 18.4757 19.3086C18.4764 19.3079 18.4772 19.3073 18.4779 19.3066L19.5441 18.2403C19.8227 17.9617 19.9528 17.5781 19.9012 17.1876C19.8495 16.7971 19.6241 16.4605 19.2828 16.264L15.6901 14.1955C15.1991 13.9127 14.5763 13.9951 14.1756 14.3958L13.246 15.3255C13.0943 15.4772 12.8533 15.4893 12.6855 15.3539C12.1395 14.9131 11.6016 14.4286 11.0869 13.9138C10.5722 13.3991 10.0877 12.8612 9.6468 12.3151C9.51135 12.1473 9.52356 11.9064 9.67517 11.7547L10.6049 10.825C11.0055 10.4244 11.0879 9.80156 10.8052 9.3105L8.7367 5.71783C8.54021 5.37652 8.20354 5.15113 7.81307 5.09947C7.42264 5.04771 7.03895 5.17794 6.76038 5.45645L5.69412 6.52276C4.90999 7.30679 4.88807 8.7187 5.63231 10.4984C6.33338 12.175 7.63977 14.0186 9.31091 15.6896C10.982 17.3607 12.8256 18.6671 14.5021 19.3682C15.3677 19.7302 16.1461 19.9109 16.8078 19.9109C17.201 19.9109 17.553 19.847 17.8574 19.7194C18.1777 20.4505 18.1948 21.2783 17.896 22.0289C17.578 22.8276 16.9346 23.4352 16.1308 23.696C14.7285 24.1509 13.2605 24.3358 11.7674 24.2451C8.9283 24.0729 6.24041 22.8562 4.19886 20.8194C2.15722 18.7823 0.934856 16.0973 0.756975 13.2588C0.64843 11.5273 0.906926 9.84091 1.52524 8.24663C2.11962 6.71397 3.01356 5.34468 4.18221 4.17667C5.35086 3.0087 6.72064 2.11564 8.25364 1.52218C9.84827 0.9048 11.5349 0.647427 13.2666 0.756851C16.1114 0.93688 18.8001 2.16549 20.8375 4.21632C22.8747 6.267 24.0859 8.96386 24.2482 11.8102C24.366 13.8764 23.944 15.9349 23.0278 17.7633C22.9373 17.9441 23.0103 18.1641 23.1912 18.2548C23.3721 18.3455 23.592 18.2722 23.6826 18.0914C24.6561 16.1489 25.1045 13.9624 24.9795 11.7687ZM17.9601 18.7886C17.4081 19.3406 16.2506 19.3056 14.7848 18.6926C13.1942 18.0274 11.4341 16.7771 9.82893 15.1718C8.22366 13.5666 6.97332 11.8065 6.30814 10.2159C5.6951 8.75 5.66009 7.59268 6.21209 7.04072L6.68055 6.57222L6.81907 6.81284C6.88685 6.93057 7.01004 6.99639 7.1368 6.99639C7.19881 6.99639 7.26165 6.98062 7.31917 6.94751C7.49446 6.84658 7.55472 6.62271 7.45384 6.44742L7.21688 6.03584L7.27835 5.97437C7.37767 5.875 7.50916 5.821 7.64705 5.821C7.67024 5.821 7.69358 5.82251 7.71707 5.82564C7.87976 5.84717 8.0201 5.94107 8.10198 6.08335L10.1705 9.67602C10.2884 9.88066 10.254 10.1402 10.087 10.3072L9.82629 10.5679L8.26936 7.86372C8.16844 7.68843 7.94451 7.62817 7.76927 7.7291C7.59397 7.82998 7.53372 8.05391 7.6346 8.2292L9.28992 11.1043L9.1573 11.2369C8.74026 11.654 8.70574 12.3153 9.07693 12.7752C9.53406 13.3415 10.0361 13.8988 10.5691 14.4317C11.1021 14.9648 11.6595 15.4668 12.2256 15.9238C12.6854 16.2951 13.3467 16.2605 13.7639 15.8434L13.8468 15.7605L14.4825 16.1233C14.5398 16.1559 14.6021 16.1715 14.6637 16.1715C14.7909 16.1715 14.9145 16.1052 14.9821 15.9867C15.0824 15.8111 15.0213 15.5874 14.8456 15.4872L14.3838 15.2236L14.6936 14.9138C14.8606 14.7468 15.1201 14.7126 15.3248 14.8303L18.9174 16.8988C19.0597 16.9807 19.1536 17.121 19.1752 17.2837C19.1966 17.4465 19.1424 17.6063 19.0263 17.7224L18.9304 17.8184L16.2047 16.2628C16.029 16.1625 15.8053 16.2236 15.7051 16.3993C15.6048 16.575 15.666 16.7986 15.8417 16.8989L18.3935 18.3553L17.9601 18.7886Z" fill="#FF8A00"/>
</g>
<defs>
<clipPath id="clip0">
<rect width="25" height="25" fill="white"/>
</clipPath>
</defs>
</svg>
