<svg width="25" height="25" viewBox="0 0 25 25" fill="none" xmlns="http://www.w3.org/2000/svg">
<g clip-path="url(#clip0)">
<path d="M24.1198 14.4719C24.8656 8.19375 23.7615 4.2302 21.7698 2.4375L21.7708 2.43645C18.5562 -0.625005 7.69999 -1.07813 3.85416 2.57395C2.12707 4.36041 1.51874 6.98229 1.45207 10.2281C1.38541 13.475 1.30624 19.5573 6.97395 21.2073H6.97916L6.97395 23.7271C6.97395 23.7271 6.93541 24.7479 7.58749 24.9531C8.33332 25.1948 8.67082 24.7208 10.9906 21.95C14.8698 22.2865 17.849 21.5156 18.1875 21.4031C18.9708 21.1406 23.4031 20.5542 24.1198 14.4719ZM11.3729 20.1771C11.3729 20.1771 8.9177 23.2385 8.15416 24.0333C7.90416 24.2917 7.6302 24.2677 7.63437 23.7552C7.63437 23.4187 7.65312 19.5719 7.65312 19.5719C2.84791 18.1948 3.13124 13.0156 3.18332 10.3062C3.23541 7.59583 3.73124 5.37604 5.19374 3.88125C8.5677 0.717704 18.0854 1.425 20.5104 3.70416C23.475 6.33229 22.4198 13.7573 22.426 14.0104C21.8167 19.0875 18.225 19.4094 17.5646 19.6292C17.2823 19.7229 14.6625 20.3969 11.3729 20.1771Z" fill="#8E24AA"/>
<path d="M12.7312 4.47604C12.3302 4.47604 12.3302 5.10104 12.7312 5.10625C15.8427 5.13021 18.4052 7.29896 18.4333 11.2771C18.4333 11.6969 19.0479 11.6917 19.0427 11.2719H19.0416C19.0083 6.98542 16.2104 4.5 12.7312 4.47604Z" fill="#8E24AA"/>
<path d="M16.824 10.6177C16.8146 11.0323 17.4281 11.0521 17.4333 10.6323C17.4844 8.26876 16.0271 6.32188 13.2885 6.11667C12.8875 6.08751 12.8458 6.71772 13.2458 6.74688C15.6208 6.92709 16.8719 8.54792 16.824 10.6177Z" fill="#8E24AA"/>
<path d="M16.1677 13.3063C15.6531 13.0083 15.1292 13.1938 14.9125 13.4865L14.4594 14.0729C14.2292 14.3708 13.799 14.3313 13.799 14.3313C10.6594 13.501 9.81979 10.2156 9.81979 10.2156C9.81979 10.2156 9.78125 9.77084 10.0687 9.5323L10.6354 9.06355C10.9187 8.83855 11.0979 8.29688 10.8094 7.76459C10.0385 6.37188 9.52083 5.89167 9.25729 5.52292C8.98021 5.17605 8.56354 5.09792 8.13021 5.3323H8.12083C7.21979 5.85938 6.23333 6.84584 6.54896 7.86146C7.0875 8.9323 8.07708 12.3458 11.2312 14.925C12.7135 16.1448 15.0594 17.3948 16.0552 17.6833L16.0646 17.6979C17.0458 18.025 18 17 18.5094 16.0719V16.0646C18.7354 15.6156 18.6604 15.1906 18.3302 14.9125C17.7448 14.3417 16.8615 13.7115 16.1677 13.3063Z" fill="#8E24AA"/>
<path d="M13.7177 8.44167C14.7188 8.5 15.2042 9.02292 15.2563 10.0969C15.275 10.5167 15.8844 10.4875 15.8656 10.0677C15.799 8.66562 15.0677 7.88437 13.7511 7.81146C13.35 7.7875 13.3125 8.41771 13.7177 8.44167Z" fill="#8E24AA"/>
</g>
<defs>
<clipPath id="clip0">
<rect width="25" height="25" fill="white"/>
</clipPath>
</defs>
</svg>
