<svg width="25" height="25" viewBox="0 0 25 25" fill="none" xmlns="http://www.w3.org/2000/svg">
<g clip-path="url(#clip0)">
<path d="M12.4933 0.00620108C5.59382 0.00766505 0.00186409 5.60201 0.00332807 12.5015C0.00381606 14.8906 0.689397 17.2294 1.97867 19.2407L0.0350476 24.2835C-0.0684557 24.5517 0.0650592 24.8531 0.33326 24.9566C0.393234 24.9797 0.456917 24.9916 0.521186 24.9915C0.580819 24.9918 0.640012 24.9816 0.696082 24.9613L5.90135 23.103C11.7579 26.7505 19.4624 24.9597 23.1098 19.1031C26.7573 13.2466 24.9665 5.54213 19.11 1.89468C17.1247 0.658208 14.8322 0.00390751 12.4933 0.00620108Z" fill="#4CAF50"/>
<path d="M18.4491 14.6344C18.4491 14.6344 17.1739 14.0097 16.3754 13.5933C15.4717 13.128 14.4099 13.9993 13.9102 14.4949C13.1325 14.1962 12.4221 13.7452 11.8208 13.1686C11.244 12.5673 10.7931 11.857 10.4945 11.0792C10.99 10.5785 11.8593 9.51762 11.396 8.614C10.9848 7.81448 10.355 6.54023 10.355 6.5392C10.2666 6.36382 10.0871 6.25309 9.89067 6.2529H8.84964C7.33354 6.51476 6.23121 7.83761 6.24702 9.37605C6.24702 11.0105 8.20314 14.1503 9.52219 15.4703C10.8412 16.7904 13.981 18.7455 15.6165 18.7455C17.1549 18.7613 18.4778 17.6589 18.7396 16.1429V15.1019C18.7398 14.9034 18.6272 14.7221 18.4491 14.6344Z" fill="#FAFAFA"/>
</g>
<defs>
<clipPath id="clip0">
<rect width="25" height="25" fill="white"/>
</clipPath>
</defs>
</svg>
