<svg width="37" height="37" viewBox="0 0 37 37" fill="none" xmlns="http://www.w3.org/2000/svg">
<path d="M17.6762 0.316328L5.34353 11.4157C5.08207 11.6525 4.93408 11.983 4.93408 12.3333L4.93408 19.7329C4.93408 20.2188 5.2202 20.6603 5.66418 20.8601C6.11062 21.0574 6.63106 20.976 6.99117 20.6504L18.5 10.2935L30.0064 20.6504C30.369 20.976 30.8894 21.0599 31.3334 20.8601C31.7798 20.6603 32.0659 20.2188 32.0659 19.7329V12.3333C32.0659 11.983 31.9155 11.6525 31.659 11.4157L19.3263 0.316328C18.8577 -0.105449 18.1424 -0.105449 17.6762 0.316328Z" fill="#FF8A00"/>
<path d="M17.6762 16.3488L5.34353 27.4482C5.08207 27.685 4.93408 28.0155 4.93408 28.3657L4.93408 35.7653C4.93408 36.2513 5.2202 36.6928 5.66418 36.8926C6.11062 37.0899 6.63106 37.0085 6.99117 36.6829L18.5 26.3259L30.0064 36.6829C30.369 37.0085 30.8894 37.0923 31.3334 36.8926C31.7798 36.6928 32.0659 36.2513 32.0659 35.7653V28.3657C32.0659 28.0155 31.9155 27.685 31.659 27.4482L19.3263 16.3488C18.8577 15.927 18.1424 15.927 17.6762 16.3488Z" fill="#FF8A00"/>
</svg>
